<svg width="155" height="32" viewBox="0 0 155 32" fill="none" xmlns="http://www.w3.org/2000/svg">
<path fill-rule="evenodd" clip-rule="evenodd" d="M0 2.345C0 1.85899 0.393989 1.465 0.88 1.465H3.52C4.00601 1.465 4.4 1.85899 4.4 2.345V18.185C4.4 18.671 4.79399 19.065 5.28 19.065H16.72C17.206 19.065 17.6 18.671 17.6 18.185V15.545C17.6 15.059 17.206 14.665 16.72 14.665H11.44C9.98197 14.665 8.8 13.483 8.8 12.025V4.105C8.8 2.64697 9.98197 1.465 11.44 1.465H19.36C20.818 1.465 22 2.64697 22 4.105V20.825C22 22.283 20.818 23.465 19.36 23.465H2.64C1.18197 23.465 0 22.283 0 20.825V2.345ZM17.6 6.745C17.6 6.25899 17.206 5.865 16.72 5.865H13.2V9.385C13.2 9.87101 13.594 10.265 14.08 10.265H17.6V6.745Z" fill="white"/>
<path d="M31.4 0V24.465H35.635V0H31.4Z" fill="white"/>
<path d="M56.4789 17.36C57.1439 10.255 53.5389 6.685 47.7639 6.685C42.1639 6.685 38.5939 10.465 38.5939 15.715C38.5939 21.245 42.1289 24.92 48.0789 24.92C50.7039 24.92 53.6789 24.01 55.4989 22.12L52.7689 19.425C51.7889 20.44 49.7239 21.035 48.1489 21.035C45.1389 21.035 43.2839 19.495 43.0039 17.36H56.4789ZM43.0739 13.825C43.7039 11.585 45.5939 10.465 47.9039 10.465C50.3539 10.465 52.1039 11.585 52.3839 13.825H43.0739Z" fill="white"/>
<path d="M76.7441 24.465V15.4C76.7441 9.975 73.4891 6.93 69.4291 6.93C67.2591 6.93 65.5091 7.805 63.7591 9.52L63.4791 7.175H59.6641V24.465H63.8991V15.645C63.8991 13.02 65.6841 10.815 68.3091 10.815C71.0391 10.815 72.4741 12.81 72.4741 15.435V24.465H76.7441Z" fill="white"/>
<path d="M88.7787 10.78C91.4737 10.78 93.7837 12.81 93.7837 15.82C93.7837 18.935 91.4737 20.895 88.7787 20.895C86.0487 20.895 83.8787 18.83 83.8787 15.82C83.8787 12.705 86.0487 10.78 88.7787 10.78ZM94.0637 0V9.555C93.0487 7.77 90.2137 6.79 88.3937 6.79C83.3537 6.79 79.6087 9.87 79.6087 15.82C79.6087 21.49 83.4237 24.85 88.4987 24.85C90.5987 24.85 92.7337 24.15 94.0637 22.085L94.3437 24.465H98.3337V0H94.0637Z" fill="white"/>
<path d="M115.699 8.995C113.704 7.245 111.674 6.72 108.979 6.72C105.829 6.72 101.699 8.12 101.699 12.11C101.699 16.03 105.584 17.22 108.839 17.465C111.289 17.605 112.269 18.095 112.269 19.285C112.269 20.545 110.764 21.385 109.154 21.35C107.229 21.315 104.429 20.3 103.204 18.935L101.104 21.98C103.624 24.605 106.354 25.06 109.084 25.06C114.019 25.06 116.504 22.435 116.504 19.39C116.504 14.805 112.374 14.07 109.119 13.86C106.914 13.72 105.899 13.09 105.899 11.97C105.899 10.885 107.019 10.255 109.049 10.255C110.694 10.255 112.094 10.64 113.319 11.795L115.699 8.995Z" fill="white"/>
<path d="M127.572 20.755C124.667 20.755 122.672 18.55 122.672 15.855C122.672 13.16 124.492 10.955 127.572 10.955C130.652 10.955 132.472 13.16 132.472 15.855C132.472 18.55 130.477 20.755 127.572 20.755ZM137.127 31.675V7.21H133.137L132.857 9.59C131.527 7.665 129.217 6.825 127.257 6.825C121.937 6.825 118.402 10.78 118.402 15.855C118.402 20.895 121.587 24.885 127.117 24.885C128.937 24.885 131.632 24.325 132.857 22.435V31.675H137.127Z" fill="white"/>
<path d="M140.878 7.21V24.465H145.148V15.365C145.148 12.18 147.213 10.99 149.453 10.99C150.853 10.99 151.658 11.375 152.533 12.11L154.458 8.4C153.513 7.455 151.798 6.755 150.013 6.755C148.263 6.755 146.478 7.07 145.148 9.205L144.833 7.21H140.878Z" fill="white"/>
</svg>
